#N canvas 257 159 667 632 10;
#X obj 339 272 / 1200;
#X obj 372 512 osc~;
#X obj 394 598 dac~;
#X msg 43 278 1200;
#X obj 106 461 *;
#X obj 77 314 /;
#X obj 139 383 random;
#X obj 305 107 *;
#X floatatom 505 221 5 1 48 0 - - - 0;
#X floatatom 504 71 5 -128 128 0 - - - 0;
#X obj 504 15 tgl 15 0 empty empty empty 17 7 0 10 #fcfcfc #000000
#000000 0 1;
#X obj 127 514 +;
#X floatatom 504 43 5 100 400 0 - - - 0;
#X obj 47 57 metro;
#X obj 264 154 print bse;
#X obj 293 392 print frq;
#X obj 31 534 print cen;
#X msg 290 68 100;
#X obj 337 319 pow;
#X msg 291 284 2;
#X floatatom 505 254 5 200 600 0 - - - 0;
#X text 539 42 int;
#X obj 346 352 *;
#X text 539 68 cnt (midi: -69);
#X text 539 251 frq (a4: 440);
#X text 539 220 equ (12-tet: 12);
#X obj 297 558 vfreeverb~;
#X obj 479 10 cnv 1 1 300 empty empty empty 20 12 0 14 #e0e0e0 #404040
0;
#X obj 105 89 send \$0_bse;
#X obj 63 117 send \$0_cen;
#X obj 354 176 send \$0_add;
#X obj 255 14 receive \$0_bse;
#X obj 379 411 send \$0_snd;
#X obj 275 240 receive \$0_frq;
#X obj 310 461 receive \$0_snd;
#X obj 168 469 receive \$0_add;
#X obj 161 575 send \$0_frq;
#X obj 99 175 receive \$0_cen;
#X connect 0 0 18 1;
#X connect 1 0 26 1;
#X connect 1 0 26 0;
#X connect 3 0 5 0;
#X connect 4 0 11 0;
#X connect 4 0 16 0;
#X connect 5 0 4 0;
#X connect 6 0 4 1;
#X connect 7 0 14 0;
#X connect 7 0 30 0;
#X connect 8 0 6 1;
#X connect 8 0 5 1;
#X connect 9 0 7 1;
#X connect 10 0 13 0;
#X connect 11 0 36 0;
#X connect 12 0 13 1;
#X connect 13 0 28 0;
#X connect 13 0 29 0;
#X connect 17 0 7 0;
#X connect 18 0 22 0;
#X connect 19 0 18 0;
#X connect 20 0 22 1;
#X connect 22 0 15 0;
#X connect 22 0 32 0;
#X connect 26 0 2 0;
#X connect 26 1 2 1;
#X connect 31 0 17 0;
#X connect 33 0 0 0;
#X connect 33 0 19 0;
#X connect 34 0 1 0;
#X connect 35 0 11 1;
#X connect 37 0 6 0;
#X connect 37 0 3 0;
